<svg xmlns="http://www.w3.org/2000/svg" xmlns:xlink="http://www.w3.org/1999/xlink" width="1920" height="997" viewBox="0 0 1920 997">
  <defs>
    <clipPath id="clip-Web_1920_1">
      <rect width="1920" height="997"/>
    </clipPath>
  </defs>
  <g id="Web_1920_1" data-name="Web 1920 – 1" clip-path="url(#clip-Web_1920_1)">
    <rect width="1920" height="997" fill="#fff"/>
    <g id="Group_5" data-name="Group 5">
      <rect id="Rectangle_10" data-name="Rectangle 10" width="2970.435" height="122.555" transform="translate(831.603 2357.501) rotate(-51)" fill="red"/>
      <rect id="Rectangle_11" data-name="Rectangle 11" width="2970.435" height="128.042" transform="translate(732.095 2276.922) rotate(-51)" fill="#1b1464"/>
      <rect id="Rectangle_12" data-name="Rectangle 12" width="2970.435" height="128.042" transform="translate(632.587 2196.342) rotate(-51)" fill="#00750e"/>
      <rect id="Rectangle_13" data-name="Rectangle 13" width="2970.435" height="120.726" transform="translate(538.766 2120.367) rotate(-51)" fill="#fbb03b"/>
      <rect id="Rectangle_14" data-name="Rectangle 14" width="2970.435" height="128.042" transform="translate(439.258 2039.787) rotate(-51)" fill="#9e005d"/>
      <rect id="Rectangle_15" data-name="Rectangle 15" width="2970.435" height="122.555" transform="translate(344.015 1962.661) rotate(-51)" fill="red"/>
      <rect id="Rectangle_16" data-name="Rectangle 16" width="2970.435" height="128.042" transform="translate(244.508 1882.081) rotate(-51)" fill="#1b1464"/>
      <rect id="Rectangle_17" data-name="Rectangle 17" width="2970.435" height="128.042" transform="translate(145 1801.502) rotate(-51)" fill="#00750e"/>
      <rect id="Rectangle_23" data-name="Rectangle 23" width="2970.435" height="122.555" transform="translate(49.756 1724.375) rotate(-51)" fill="#fbb03b"/>
      <rect id="Rectangle_24" data-name="Rectangle 24" width="2970.435" height="128.042" transform="translate(-49.751 1643.795) rotate(-51)" fill="#9e005d"/>
      <rect id="Rectangle_25" data-name="Rectangle 25" width="2970.435" height="120.726" transform="translate(-143.572 1567.82) rotate(-51)" fill="red"/>
      <rect id="Rectangle_26" data-name="Rectangle 26" width="2970.435" height="128.042" transform="translate(-243.08 1487.24) rotate(-51)" fill="#1b1464"/>
      <rect id="Rectangle_27" data-name="Rectangle 27" width="2970.435" height="128.042" transform="translate(-342.588 1406.66) rotate(-51)" fill="#00750e"/>
      <rect id="Rectangle_28" data-name="Rectangle 28" width="2970.435" height="128.042" transform="translate(-537.339 1248.953) rotate(-51)" fill="#9e005d"/>
      <rect id="Rectangle_29" data-name="Rectangle 29" width="2970.435" height="122.555" transform="translate(-632.582 1171.827) rotate(-51)" fill="red"/>
      <rect id="Rectangle_32" data-name="Rectangle 32" width="2970.435" height="122.555" transform="translate(-437.832 1329.532) rotate(-51)" fill="#fbb03b"/>
      <rect id="Rectangle_30" data-name="Rectangle 30" width="2970.435" height="128.042" transform="translate(-732.09 1091.248) rotate(-51)" fill="#1b1464"/>
      <rect id="Rectangle_31" data-name="Rectangle 31" width="2970.435" height="128.042" transform="translate(-831.597 1010.668) rotate(-51)" fill="#00750e"/>
    </g>
  </g>
</svg>
