<svg xmlns="http://www.w3.org/2000/svg" xmlns:xlink="http://www.w3.org/1999/xlink" width="3218.523" height="986.603" viewBox="0 0 3218.523 986.603">
  <defs>
    <clipPath id="clip-path">
      <rect id="Rectangle_1" data-name="Rectangle 1" width="3213.432" height="982.876" fill="none" stroke="#000" stroke-width="30"/>
    </clipPath>
  </defs>
  <g id="Group_3" data-name="Group 3" transform="translate(5.091)">
    <path id="Path_1" data-name="Path 1" d="M4.5,958.69H454.414L904.327,484.717,454.414,10.744H4.5V958.69Z" transform="translate(5.409 12.913)" fill="#fbb03b" stroke="#000" stroke-width="30"/>
    <g id="Group_2" data-name="Group 2">
      <g id="Group_1" data-name="Group 1" clip-path="url(#clip-path)">
        <path id="Path_2" data-name="Path 2" d="M4.5,958.69H454.414L904.327,484.717,454.414,10.744H4.5V958.69Z" transform="translate(5.409 12.913)" fill="none" stroke="#000" stroke-miterlimit="10" stroke-width="30"/>
        <path id="Path_3" data-name="Path 3" d="M1228.28,958.69H778.366q226.162-235.783,452.322-471.566Q1004.525,248.933,778.366,10.744H1228.28L1678.2,484.717Z" transform="translate(935.561 12.914)" fill="#1b1464" stroke="#000" stroke-width="30"/>
        <path id="Path_4" data-name="Path 4" d="M1228.28,958.69H778.366q226.162-235.783,452.322-471.566Q1004.525,248.933,778.366,10.744H1228.28L1678.2,484.717Z" transform="translate(935.561 12.914)" fill="none" stroke="#000" stroke-miterlimit="10" stroke-width="30"/>
        <path id="Path_5" data-name="Path 5" d="M1172.167,958.69H272.34V10.744h899.827Q946.005,246.527,719.848,482.31,946.006,720.5,1172.167,958.69" transform="translate(327.34 12.914)" fill="#9e005d" stroke="#000" stroke-width="30"/>
        <path id="Path_6" data-name="Path 6" d="M1172.167,958.69H272.34V10.744h899.827Q946.005,246.527,719.848,482.31,946.006,720.5,1172.167,958.69Z" transform="translate(327.34 12.914)" fill="none" stroke="#000" stroke-miterlimit="10" stroke-width="30"/>
        <path id="Path_7" data-name="Path 7" d="M1425.18,958.69H525.353L975.265,10.744Z" transform="translate(631.451 12.913)" fill="red" stroke="#000" stroke-width="30"/>
        <path id="Path_8" data-name="Path 8" d="M1425.18,958.69H525.353L975.265,10.744Z" transform="translate(631.451 12.913)" fill="none" stroke="#000" stroke-miterlimit="10" stroke-width="30"/>
        <path id="Path_9" data-name="Path 9" d="M1946.032,11.363V485.336L1496.117,959.309H1046.2V11.363q223.813,238.254,447.629,476.508l452.2-476.508" transform="translate(1257.492 13.658)" fill="#00750e" stroke="#000" stroke-width="30"/>
        <path id="Path_10" data-name="Path 10" d="M1946.032,11.363V485.336L1496.117,959.309H1046.2V11.363q223.813,238.254,447.629,476.508Z" transform="translate(1257.492 13.658)" fill="none" stroke="#000" stroke-miterlimit="10" stroke-width="30"/>
      </g>
    </g>
  </g>
</svg>
